<?xml version="1.0" encoding="utf-8"?>
<!-- Generator: Adobe Illustrator 23.0.5, SVG Export Plug-In . SVG Version: 6.00 Build 0)  -->
<svg version="1.1" id="Layer_1" xmlns="http://www.w3.org/2000/svg" xmlns:xlink="http://www.w3.org/1999/xlink" x="0px" y="0px"
	 viewBox="0 0 18 18" style="enable-background:new 0 0 18 18;" xml:space="preserve">
<style type="text/css">
	.st0{fill:none;}
</style>
<path class="st0" d="M0,0h18v18H0V0z"/>
<path d="M9,1.5C4.9,1.5,1.5,4.9,1.5,9s3.4,7.5,7.5,7.5h3.8V15H9c-3.3,0-6-2.7-6-6s2.7-6,6-6s6,2.7,6,6v1.1c0,0.6-0.5,1.2-1.1,1.2
	s-1.1-0.6-1.1-1.2V9c0-2.1-1.7-3.8-3.8-3.8S5.3,6.9,5.3,9s1.7,3.8,3.8,3.8c1,0,2-0.4,2.7-1.1c0.5,0.7,1.3,1.1,2.2,1.1
	c1.5,0,2.6-1.2,2.6-2.7V9C16.5,4.9,13.1,1.5,9,1.5z M9,11.2c-1.2,0-2.3-1-2.3-2.3s1-2.3,2.3-2.3s2.3,1,2.3,2.3S10.2,11.2,9,11.2z"/>
<text transform="matrix(1 0 0 1 114 -333.1102)" style="font-family:'MyriadPro-Regular'; font-size:12px;">Lorem ipsum</text>
</svg>
